<svg xmlns="http://www.w3.org/2000/svg" viewBox="0 0 122.2 140.3"><defs><linearGradient x1="100%" y1="100%" x2="0%" y2="0%" id="a"><stop stop-color="#BDCE30" offset="0%"/><stop stop-color="#6ABB81" offset="11.326%"/><stop stop-color="#00B29A" offset="23.006%"/><stop stop-color="#0099AE" offset="33.725%"/><stop stop-color="#4F72B8" offset="45.03%"/><stop stop-color="#A065AA" offset="54.57%"/><stop stop-color="#EE4D7A" offset="66.422%"/><stop stop-color="#EF4C45" offset="77.36%"/><stop stop-color="#F4792B" offset="89.516%"/><stop stop-color="#FAA634" offset="100%"/></linearGradient></defs><path fill="none" stroke="#FFF" stroke-width="3.141" stroke-linecap="round" stroke-linejoin="round" d="M70.2 106.6c-.3-3.6-1.8-7-4.1-9.8 11.2-1.1 27.1-9 27.9-21.8.2-1.9-.1-3.7-.8-5.5.1-1.1-.5-2.2-1.4-2.8-.9-.6-2.2-.7-3.2-.1-3.4-7.4-2.6-13.1-5.1-18.8-5.4-12.9-22.9-16.1-34.9-11.2-.4.2-.9.1-1.2-.3-.7-1.1-1.7-2-2.8-2.7-4.7 2-7.8 6.5-8.1 11.6-8.5 9-10.8 22.2-5.8 33.6S47 97.5 59.4 97.4c.9 0-4.6 1.6-7.2 9.2"/><path fill="url(#a)" d="M120.8 34L62.6.4c-.9-.5-2-.5-2.9 0L1.4 34c-.8.5-1.4 1.5-1.4 2.5v67.3c0 1 .6 1.9 1.4 2.5l58.2 33.6c.4.3.9.4 1.4.4.5 0 1-.1 1.4-.4l58.2-33.6c.9-.5 1.4-1.5 1.4-2.5V36.5c.2-.9-.3-1.9-1.2-2.5zm-3.1 3.5v65.3l-56.5 32.6-56.6-32.6V37.5L61.1 4.9l56.6 32.6z"/></svg>