<svg xmlns="http://www.w3.org/2000/svg" viewBox="0 0 870.06 664.41"><defs><style>.cls-1,.cls-18,.cls-27{fill:none}.cls-2{fill:#31273a}.cls-3{fill:#19111a}.cls-4{fill:#81c9c9}.cls-5{fill:#10c7ff}.cls-6{fill:#59d35f}.cls-7{fill:#ac47f4}.cls-9{fill:#8a39d1}.cls-17{fill:#48b74b}.cls-18{stroke:#1e2122;stroke-width:3px}.cls-18,.cls-27{stroke-linecap:round;stroke-miterlimit:10}.cls-19{fill:#1e2122}.cls-21{fill:#ae5d52}.cls-27{stroke-width:2px}.cls-24{fill:#fff}.cls-27{stroke:#adadad}</style><clipPath id="clip-path" transform="translate(-7.06 -14.61)"><path class="cls-1" d="M247.69 80.37l109.93 110.32-30.41-1.35-114.61-84.35 35.09-24.62z"/></clipPath><clipPath id="clip-path-2" transform="translate(-7.06 -14.61)"><ellipse class="cls-1" cx="260.26" cy="86.39" rx="20.43" ry="11.16" transform="rotate(-44.65 260.269 86.386)"/></clipPath></defs><g id="Mona"><path class="cls-2" d="M322.29 281.16C306.75 265.66 259 213 291.75 167.81c8.78-22.56-15.94-74.33-35.42-52.46s-33.63 81.81-11.42 114.9 77.38 93.16 98.24 107.05c-20.36-13.56-20.86-56.14-20.86-56.14z" transform="translate(-7.06 -14.61)"/><path class="cls-3" d="M346.69 340.7c-1.33-.88 7.49 11.1 5.93 10.24-65.5-36-118.89-104-130.5-159.92-12.1-58.32 32-100.78 52.12-112.1s51.95-19.16 72.34 5.08 19.91 53.09-.94 75.85-32.79 16.31-37.15 14.64c-3.09-2.6-3.09 1-4.71 2.26-3.95 3.15-10.36 1.56-15-6.88-7.85-14.41-10-19.66 7.77-35.53s22.83-20.45 15.22-33.38-18-20.79-35.84-2.7S241.78 142.63 241 177s25.93 94.39 86 145.48c2.36 1.89 19.69 18.22 19.69 18.22z" transform="translate(-7.06 -14.61)"/><path class="cls-4" d="M272.88 193.6c-.53 11.72-6.44 21-12.14 20.71s-9.17-11.9-8.65-23.62 3.27-20.57 9-20.32 12.31 11.52 11.79 23.23zM290.64 248.86c7 9.43 12.16 21.9 8.44 23-9.27 2.76-14.82-6-21.79-15.42s-9-19.8-5.21-22.58 11.59 5.57 18.56 15zM328.92 298.11c8.51 8.06 13 15.8 9.83 19.12s-11.79-1.38-20.31-9.44-13.66-16.45-10.51-19.79 12.48 2 20.99 10.11z" transform="translate(-7.06 -14.61)"/><ellipse class="cls-4" cx="284.94" cy="129.69" rx="24.3" ry="15.7" transform="rotate(-55.3 269.368 129.461)"/><path class="cls-5" d="M259.79 72.83s-4.79-6.62-4.19-12.59c3.32-.87 4.19-.63 4.19-.63s-.07 5.45 1 7.1 2.9 4.29 2.9 4.29a26.18 26.18 0 0 0-3.9 1.83z" transform="translate(-7.06 -14.61)"/><path class="cls-6" d="M265.76 70.42a48.16 48.16 0 0 1-2.07-5.24 23.47 23.47 0 0 1-1.25-6.66 10.42 10.42 0 0 1 3.32-.7 14.26 14.26 0 0 0 .68 4.46c.75 2.21.87 4.33 2.9 7.7a8.9 8.9 0 0 1-3.58.44zM257.32 74.37a35.76 35.76 0 0 1-3.63-4.9c-.75-1.56-2.15-5.16-2.67-6.55-.05 2.18.52 3.54-1.68 4.12a16.32 16.32 0 0 1 2 5.16c.52 2.14 1.85 2.91 3.25 4.24 1.41-1.09 2.73-2.07 2.73-2.07z" transform="translate(-7.06 -14.61)"/><path class="cls-5" d="M245.57 67.33l1 4.46a63.14 63.14 0 0 1 3.94 5.39 6.22 6.22 0 0 0 2.83 2.61l-2.77 2.61s-3-2.38-3.59-3.13-2.44-2.9-2.79-5a13.15 13.15 0 0 1-1.5-3v-2.09s1.38-1.85 2.88-1.85z" transform="translate(-7.06 -14.61)"/><path class="cls-6" d="M247.49 84.54a42.86 42.86 0 0 1-4.81-4.75c-1-1.45-2.61-4.06-4.35-5.39-.46 1.62-.58 3.13-1.22 3.3a7.77 7.77 0 0 0-1.5.7s3.59 1.85 4.4 3.42 4.29 6.6 6 7.76a44.85 44.85 0 0 0 1.71-4.58z" transform="translate(-7.06 -14.61)"/><path class="cls-5" d="M244.65 92a37.33 37.33 0 0 0-3.83-3.71c-2-1.65-3.77-2.49-4.46-3.3s-1.8-2.14-1.8-2.14a6.24 6.24 0 0 1-.81 2.66 1.72 1.72 0 0 1-1.45.64 38.89 38.89 0 0 1 4.35 3.47c.52.76 3.53 1.28 4 2.9s3.24 3.25 4 3.83 0-4.35 0-4.35z" transform="translate(-7.06 -14.61)"/><path class="cls-6" d="M243.74 97c-1.73-1.52-1.73-2.31-2.93-3a41.49 41.49 0 0 1-5.2-4.24 18 18 0 0 0-2.55 3.14s3.46 1.84 6.13 3.44 6.7 3.74 6.7 3.74z" transform="translate(-7.06 -14.61)"/><path class="cls-5" d="M272 70.45a33.92 33.92 0 0 0-1.32-7.53 28.6 28.6 0 0 1-1.3-4.77s2.55.53 3.15 0a72.15 72.15 0 0 1 1.39 7.21 56.7 56.7 0 0 1 .91 6.67c0 2.07-2.43.8-2.73-1.31" transform="translate(-7.06 -14.61)"/><path class="cls-7" d="M350.06 168.06s-75-95.71-75.27-96c-4.33-4.38-14.35-1.51-22.38 6.42s-11 17.91-6.69 22.3C246 101 339 179 339 179c1.48 1.5 5.16.26 8.22-2.77s4.32-6.68 2.84-8.17z" transform="translate(-7.06 -14.61)"/><path d="M350.06 168.06l-17.73-22.64c1.08 2.59-.7 7.08-4.48 10.81s-8.32 5.47-10.89 4.34L339 179c1.48 1.5 5.16.26 8.22-2.77s4.32-6.68 2.84-8.17z" transform="translate(-7.06 -14.61)" fill="#e8e8e8"/><path class="cls-9" d="M293.87 103.57c0 12.23-7 22.36-16.09 24.11l8.31 7h.26c9 0 16.28-9.4 16.28-21a26.32 26.32 0 0 0-1.09-7.54l-9-11.48a30.72 30.72 0 0 1 1.33 8.91zM252.41 78.45c-8 7.93-11 17.91-6.69 22.3.09.09 10 8.4 23.31 19.58 9.25-3.11 16.08-14 16.08-26.86a34.68 34.68 0 0 0-1.52-10.24c-5.32-6.79-8.74-11.13-8.8-11.2-4.33-4.38-14.35-1.51-22.38 6.42z" transform="translate(-7.06 -14.61)"/><ellipse cx="260.26" cy="86.39" rx="20.43" ry="11.16" transform="rotate(-44.65 238.95 87.678)" opacity=".7" fill="#3a3b3a"/><g clip-path="url(#clip-path)"><path d="M350.06 168.06s-75-95.71-75.27-96c-4.33-4.38-14.35-1.51-22.38 6.42s-11 17.91-6.69 22.3C246 101 339 179 339 179c1.48 1.5 5.16.26 8.22-2.77s4.32-6.68 2.84-8.17z" transform="translate(-7.06 -14.61)" fill="#282d2f" opacity=".2"/></g><g clip-path="url(#clip-path-2)"><ellipse cx="259.58" cy="100.13" rx="24.55" ry="16.06" transform="rotate(-47.72 239.552 100.792)" opacity=".8" fill="#3a3b3a"/></g><path class="cls-5" d="M245.16 100.09c-1-.21-8.18-1.52-9-3.46.16 1.73-.45 3.77-1.07 4.29 1.75-.68 4.06-1.1 4.79-.78s6.09 2.5 8.7 2.3a14.31 14.31 0 0 0-3.42-2.35z" transform="translate(-7.06 -14.61)"/><path class="cls-6" d="M274.79 72c-.08-1.29-.85-10.5.74-11.63a26.76 26.76 0 0 1 2.55 1.26 21.26 21.26 0 0 0-1.16 6.37 40.23 40.23 0 0 1-.61 7.76 8 8 0 0 1-1.52-3.76zM272.93 88.43l.05-.07 1.74-3.09.07-.12s-1.25-1.41-2.43-3.05-3.58-6.35-3.58-6.35-3.37 1.06-2.66 2.76 6.76 9.85 6.81 9.92z" transform="translate(-7.06 -14.61)"/><path class="cls-5" d="M270.93 91.21a29 29 0 0 1-3.21-4.48 23.49 23.49 0 0 0-3.1-4.33 11.65 11.65 0 0 0-3 1.75c2.13 2.63 7.68 8.84 7.73 8.9.54-.61 1.08-1.22 1.58-1.84zM276.63 79.34a30.89 30.89 0 0 0-1.9-3c-1.93-2.81-2.82-6.21-3.83-8.21.46 1.58-.66 2-1.56 2.91.55 3.47 6.46 11.26 6.56 11.39a17.16 17.16 0 0 0 .73-3.09z" transform="translate(-7.06 -14.61)"/><path class="cls-6" d="M256.1 102a2.71 2.71 0 0 0-.78-.89A12.3 12.3 0 0 1 252 98.8c-1.42-1.57-4-2.88-5.41-5.08a13 13 0 0 1-3.3 2.41c2.2 1.15 5.69 5 8.83 6.63a17 17 0 0 0 3.98-.76z" transform="translate(-7.06 -14.61)"/><path class="cls-5" d="M262.43 98.9c-3.36-2.84-5.16-8.27-7.18-11-1.23.23-2.41 2.15-3.53 3.48 4.6 4.62 5.35 7 7.06 9.5a28.4 28.4 0 0 0 3.65-1.98z" transform="translate(-7.06 -14.61)"/><path class="cls-6" d="M265.09 97c.76-.6 1.51-1.26 2.24-2a12.73 12.73 0 0 1-3.64-4.47c-2-3.5-3.43-4.19-5.29-6.43-.68 1.73-2.86 1.06-2.86 1.06s3.58 4.23 4.72 5.42 3.82 5.34 4.83 6.42z" transform="translate(-7.06 -14.61)"/><path class="cls-2" d="M287 87.58l21.44 27.36s.7 7.11-7.73 13.68-10.78 6.34-13.8 6.73c-9.62 10.47-13.34 22.82-1 38.79 3.31 4.28 9.26 8.11 16.94 9.24s6.65-6 6.65-6l-11.19-7.09 13.41-9 25.2-49.59-16.39-32.94z" transform="translate(-7.06 -14.61)"/><path class="cls-3" d="M346.58 84c-19-22.6-48-17.3-68.12-7.3 2.36 3 5.75 7.32 9.77 12.46 10.69-4.64 17.9 2.17 23.58 11.8 7.61 12.93 2.5 17.51-15.22 33.38s-15.31 26.64-7.89 38.1c3 4.64 12.25 9.27 17.51 8.62 2.12-.27 4.77-2.7 2.28-6.57 4.52 1.57 16.29 8.13 37.15-14.64s21.36-51.63.94-75.85z" transform="translate(-7.06 -14.61)"/><ellipse cx="444.93" cy="597.88" rx="180.54" ry="52.47" fill="#9ddbf4"/><path d="M430.72 590.39c11.87 8.25 50.24 9.11 64.4 0a241.62 241.62 0 0 1 31.06 26.06S479.59 603.87 460 605.6s-51.72 12.64-61 13.19c-2.54-15.12 31.72-28.4 31.72-28.4z" transform="translate(-7.06 -14.61)" fill="#80c9e0"/><path class="cls-6" d="M396.54 176.7c9.72-11.08 35.31-83.86 39.8-97.27 19.59 19.67 47.43 40.72 74.66 117.25-80.45-4.45-114.46-19.98-114.46-19.98z" transform="translate(-7.06 -14.61)"/><path class="cls-17" d="M500 168.72c-.91-.92-1.84-1.84-2.8-2.74-28.86-27.21-67.37-35.47-86-18.44l-.28.27c-2.88 7-5.67 13.32-8.16 18.39a33.16 33.16 0 0 1 4.26-4.72c21.2-19.37 64.29-10.66 96.23 19.46 1 .95 2 1.91 2.95 2.87q-3.12-7.98-6.2-15.09zM428.09 102.9c9.47-4.17 24.32-.8 38.57 8.45a227 227 0 0 0-19.26-21.11C442 88.5 437 88.07 433 89.1c-1.37 3.9-3 8.63-4.91 13.8z" transform="translate(-7.06 -14.61)"/><path class="cls-17" d="M491.15 151c.37.34.72.69 1.07 1-3.52-7-7-13.34-10.48-19-20.43-17.55-45.11-24.09-58.91-15.82-1.82 4.88-3.72 9.9-5.65 14.87 16.7-12.55 49.12-4.46 73.97 18.95z" transform="translate(-7.06 -14.61)"/><path class="cls-18" d="M319.09 281.16c-25.86-5.53-60.52-10.65-97.5 0M327.9 311.84c-21.57 7.7-66.25 20.19-96.29 50.92M575.36 311.84c29.1.77 66.16-.09 96.89 21.32M572.1 331.56c14.64 8.78 57.78 26.1 88.59 70.21" transform="translate(-7.06 -14.61)"/><path class="cls-3" d="M488.61 425.24c9.09 8.3 31.92 22.9 71.6 11.91S653 381.39 672 379.78c8.31 5.09 41.25 13.9 55.61 9.9-3.33-11.51-40.6-57.89-57.75-43.68s-47.44 31-59.51 42.28S561.82 420 548.15 424s-59.54 1.24-59.54 1.24z" transform="translate(-7.06 -14.61)"/><path class="cls-2" d="M610.35 356.25c12.17-11.74 33.77-34.91 67-33.84s44.62 19 50.25 29.65 13.23 27.16 9 40.15c-3.13 9.56-7.72 2.06-22.5-14-15-16.35-33.92-20.54-55.22-6.33s-44.63 30.79-71.58 45.74c-26.65 14.77-47.73 24.81-76.41 19.91s-44.77-30.63-48.52-35.73 4.56-6.43 4.56-6.43 19.84 9.11 31.63 11 38.61 1.07 49.6-5.63 52.3-34.94 62.19-44.49z" transform="translate(-7.06 -14.61)"/><ellipse class="cls-4" cx="646.41" cy="354.89" rx="20.66" ry="11.32" transform="rotate(-38.08 621.688 357.798)"/><ellipse class="cls-4" cx="600.6" cy="391" rx="17.36" ry="9.11" transform="rotate(-38.08 575.875 393.904)"/><ellipse class="cls-4" cx="554.72" cy="418.32" rx="18.77" ry="6.77" transform="rotate(-22.21 514.087 429.053)"/><path class="cls-4" d="M519.21 425.68c-1.17 4.37-9.43 6-18.45 3.55s-15.38-7.91-14.21-12.28 6.19-.92 15.21 1.49 18.62 2.87 17.45 7.24zM692.19 334.06c2.95-3 13.35 1.69 21.47 9.77s12.41 19.06 9.46 22-12-3.21-20.15-11.29-13.73-17.54-10.78-20.48z" transform="translate(-7.06 -14.61)"/><path class="cls-3" d="M165.76 350.91c8.34 4.63 25.24 1.29 30.83 0 9-2.08 21.59-9.33 27.85-9.1 15.56 1.05 32.32 20 50.63 37.65 20.32 19.6 61.34 39.85 84.82 40-14.49-14.74-57.6-53.68-57.6-53.68l-27.22-29.9L230.2 314 172 334.22z" transform="translate(-7.06 -14.61)"/><path class="cls-2" d="M157.83 354.88c-6.61-10.38-2.62-41.07 26.5-57.08s49.4-12.92 62.67-9.8 40.58 18.08 66.61 45 33.74 44.1 53.92 56.68 48.77 3.74 54.33 0 8 9.81-3.27 16.11-33.08 18.52-58.67 13.67-42.36-18.08-70.8-51.61-50.22-40-70.36-40.14c-20.83-.22-54.23 37.66-60.93 27.17z" transform="translate(-7.06 -14.61)"/><path class="cls-4" d="M207 303.48c-2.7-4-11.67-2.3-21.17 4.09s-15 14.82-12.31 18.85 12.6 2.11 22.11-4.27 14.03-14.65 11.37-18.67zM270.33 320.78c2.56-4.5-3.14-13.45-11.9-18.43s-21.13-3.87-23.68.63 5.68 10.7 14.44 15.67 18.59 6.63 21.14 2.13zM319.15 365.48c4.37-4.2-.79-12.47-8.57-20.38-6.83-6.93-16.22-8.92-19-5.92s.49 12.07 7.66 18.65 15.68 11.71 19.91 7.65zM361.17 403.56c1.73-3.28-2.18-8-11.67-14.77-7.23-5.13-15.93-9.44-17.6-1.59-.77 3.62 3.23 10.52 11.07 14.65s16.48 4.99 18.2 1.71zM407.11 403.22c-.41-2.61-4.25-2.79-14-2.37-7.46.31-14.44 3.53-14 6.14s7.34 4.5 14.73 3.35 13.68-4.5 13.27-7.12z" transform="translate(-7.06 -14.61)"/><path class="cls-3" d="M356.23 604.59c-7.76 4.89-23.18 6.53-20.52 9.6s31.87 12.53 67.74 3.92c10.69-13.11-6.53-10.47-6.53-10.47zM575.19 610.57c4.26-.69 17.9-3.93 17.73-.34s-15.93 21-50.43 14.06-37-11.24-40.62-14.26 18.58-13.28 18.58-13.28z" transform="translate(-7.06 -14.61)"/><path class="cls-19" d="M416 396.1s-26.29 42.34-35.07 96.5c-6.6 40.74-11.51 58.68-12.85 90.89-7.7 4.55-23.23 15.93-22.15 27.78.89 5.1 50 13.9 71 2.59s20.48-24.17 20-35c-2-44-8.68-49.4-6.52-91.94s3.41-48.84 7.71-65.53c2.68 17.23 10.67 80.24 25 119 13.43 36.26 22.1 56.12 37.81 68.85 24.55 19.89 66.64 12.18 81.92-.06-7.81-18.34-18.07-25.62-34.34-30.3-6.65-15.45-11.89-24.49-34.51-59.49S477.59 438.55 469.27 402c14.54 4.31 38 17.65 66.77 8.08 31.67-10.54 58.34-36.52 74.31-53.85-31.23 21-54.54 38.77-77.25 43.36-24.48 4.95-39.06 4-69.75-16.43-13.91-8.41-29.62-7-36.62-4.85s-18.29 10-29.35 11.34c-11.23 1.32-19.21 3.1-29.88 0 13.36 9.48 36.08 9.68 48.5 6.45zM371.23 184.7s-28.33-3.79-53.78 1.49c-20.58 4.27 13.22 64.36 28 74.88 16.02-15.53 25.78-76.37 25.78-76.37z" transform="translate(-7.06 -14.61)"/><path class="cls-3" d="M380.75 193.59c0 3.77-11.52 8.39-28 8.39s-28.22-6.09-31.79-9.77c-2.63-2.7 13.39-5.46 29.91-5.46s29.88 3.06 29.88 6.84zM338.63 206.87c0 .47.21 2.75.21 3.22 0 8.57-8 26-14.34 23.48 3.41 4.86 7.43 15 12.81 17.49A433.77 433.77 0 0 1 348.77 209c-3.28-.6-7.31-1.34-10.14-2.13z" transform="translate(-7.06 -14.61)"/><path class="cls-19" d="M550.14 204s28.44 2.84 52 13.86c19 8.91-27.73 59.57-44.53 66.39-12.02-18.81-7.47-80.25-7.47-80.25z" transform="translate(-7.06 -14.61)"/><path class="cls-3" d="M538.83 210.43c-.87 3.68 9.27 10.83 25.34 14.64s28.87.59 33.19-2.15c3.19-2-11.77-8.41-27.85-12.23s-29.81-3.93-30.68-.26zM576.74 233.08c-.13.45-.84 2.63-1 3.09-2 8.34 1.79 27.17 8.54 26.16-4.44 3.93-10.69 12.84-16.51 14.06a434.53 434.53 0 0 0-1.43-43.61c3.37.22 7.46.41 10.4.3z" transform="translate(-7.06 -14.61)"/><path class="cls-19" d="M578.39 269.6c.53-5.06 1.08-9.45 2.28-16.87 6-36.72-42.61-75.18-108.52-85.89s-119.89 11.1-131.71 46.29c-5.51 16.39-6.7 24.92-9.23 31.31s-9 7-12.12 36.72c-4.94 47.11 32.55 86.26 117.91 102.72C525.59 401 576.24 366 583.28 319.13c2.38-15.85-5.41-44.48-4.89-49.53z" transform="translate(-7.06 -14.61)"/><path d="M353.88 242.51S333 266 338.71 299.17C344.48 332.51 360 339.51 375 348c17.06 9.64 27.94 8.75 41.31 6.67 14.15-2.2 34.32-.39 49 4.76 14.37 5 34.64 8.15 53.43 4.37 17.82-3.59 31.93-13.26 45.62-34.14 13.09-20 4.87-50.5-2.69-61.74 3.36-13 3.68-22.14 2.09-34.85s-8.57-22.1-29.29-33.13-33.47-13.14-49-13.14-29.08-3.39-41.84-8.48-24.31-5.19-40.24-2.12c-16.49 3.19-31.48 10.18-39.45 28s-9.66 23.47-10.06 38.31z" transform="translate(-7.06 -14.61)" fill="#f7cdb5"/><path class="cls-21" d="M500 271.3c-11.32 1.43-15.19 8.7-39.22 5.59-21.71-2.8-30.71-6.2-44.43-15.55a35.09 35.09 0 0 0-7.68-4 59 59 0 0 0-1.64 8c-3.87 29.25 13.35 60.31 39.5 62.92s53.09-17.37 57.93-55.62c.08-.59.13-1.17.18-1.75-1.52.11-3.06.2-4.64.41z" transform="translate(-7.06 -14.61)"/><path d="M391.1 239.66c4.63.39 12.48 3.22 18.14 7.07 13.72 9.35 22.72 12.75 44.43 15.55 24 3.11 27.9-4.16 39.22-5.59a68.81 68.81 0 0 1 14.78.1" stroke-width="2" stroke="#ae5d52" stroke-miterlimit="10" fill="none"/><path d="M452.8 301.27c-14.8-4.27-29.48-4.86-41.27-2.27 6.59 15.71 19.13 27.71 35 29.29a48.1 48.1 0 0 0 36.09-11.75c-7.55-6.33-17.8-11.78-29.82-15.27z" transform="translate(-7.06 -14.61)" fill="#c68073"/><path class="cls-21" d="M385.41 258.12l.89-.68a20.9 20.9 0 0 1 2.58-1.46c.56-.24 1.16-.53 1.81-.78s1.35-.5 2.08-.72 1.5-.42 2.28-.62 1.58-.33 2.39-.48 1.61-.26 2.42-.3 1.6-.11 2.37-.09 1.52.06 2.23.13a19.89 19.89 0 0 1 2 .36 12 12 0 0 1 1.62.51 7.09 7.09 0 0 1 1.19.55c.63.37 1 .6 1 .6s-.42 0-1.1-.18c-.34-.08-.77-.08-1.24-.14s-1 0-1.6-.08-1.22 0-1.88 0-1.37 0-2.1.12-1.48.09-2.24.2l-2.31.26c-1.55.24-3.11.46-4.55.78s-2.79.6-3.94.87l-1.57.43-1.2.36zM526.68 277l-.91-.58c-.29-.17-.67-.33-1.06-.54s-.91-.38-1.42-.62c-1.06-.4-2.3-.86-3.66-1.28s-2.82-.88-4.26-1.35a70.5 70.5 0 0 1-8-2.82 25.88 25.88 0 0 1-2.53-1.29c-.59-.38-.9-.61-.9-.61s.4.05 1.06.19 1.62.28 2.75.5c.58.09 1.18.25 1.83.38s1.33.3 2 .48c1.4.35 2.88.8 4.35 1.3.73.26 1.47.49 2.18.79s1.42.56 2.09.87 1.3.63 1.9.93 1.14.68 1.64 1 .93.65 1.31 1 .69.62.92.86zM471 252.41c0 1.89-3.19 1.1-11-.53-7.07-1.47-11.27-1.8-9.86-4.08 1.26-2 6.56-3.42 11.51-2.18S471 250 471 252.41zM519.91 252.35c2.63-1.65 5.8 2.45 8.46 1.16 7.09-16.89 0-36.22-15.38-40.39-19-3.41-26.54 22.47-26.57 31 0 8.8 0 10.52 3 11.33 11.58.4 22.63 1.83 30.49-3.1z" transform="translate(-7.06 -14.61)"/><path class="cls-24" d="M528.37 253.51c5.2-18.65-6.16-39.26-18.36-38.89-12.62.38-22.24 13.84-22.78 34.67a48.35 48.35 0 0 1 2.16 6.16c9.21-1.15 36.32-.65 38.98-1.94z" transform="translate(-7.06 -14.61)"/><path class="cls-21" d="M504.67 233.44a22 22 0 0 0-13.91 5.31c-3.95 4.08-4.46 10.22-3.29 16.7 9.75-1 20.43-.41 29.19-.45 2.43-2.13 2.9-4.55 2.9-7.89 0-7.38-6.1-13.67-14.89-13.67zM398.47 237.23c-3-.79-5.31-.23-8.53-.24-4.23-17.83 3.6-36.25 22-38 19.27-.25 22.85 13.34 20.73 33.76C431.47 244 430.1 247 430.1 247c-10-5.23-21.82-7.19-31.63-9.77z" transform="translate(-7.06 -14.61)"/><path class="cls-24" d="M389.94 237c-2.57-24.34 12.8-37.13 24.48-35.35 12.49 1.89 20.4 10 16.56 36.83a30.78 30.78 0 0 1-2.92 6.83c-8.89-2.66-35.71-6.61-38.12-8.31z" transform="translate(-7.06 -14.61)"/><path class="cls-21" d="M416.6 221.08a22 22 0 0 1 12.85 7.52c4.81 4.89.88 16.29-1.39 16.7-9.46-2.55-18.19-3.45-26.82-4.92-2.05-2.5-2.12-5-1.57-8.26 1.21-7.28 8.26-12.49 16.93-11.04z" transform="translate(-7.06 -14.61)"/><path class="cls-24" d="M499.87 230.07a13.38 13.38 0 0 0-4.25.68q-1.49 2-2.81 4.16c-.68 1.12-1.28 2.24-1.82 3.36 1.25 2.46 4.75 4.24 8.88 4.24 5.18 0 9.37-2.78 9.37-6.22s-4.19-6.22-9.37-6.22zM410.89 218.14a13.1 13.1 0 0 0-4.25.69 48 48 0 0 0-2.81 4.16c-.68 1.12-1.28 2.24-1.82 3.35 1.25 2.46 4.75 4.24 8.88 4.24 5.18 0 9.37-2.78 9.37-6.22s-4.19-6.22-9.37-6.22z" transform="translate(-7.06 -14.61)"/><path class="cls-21" d="M483.27 251.57a4.48 4.48 0 0 0 .42.62 4.34 4.34 0 0 0 1.54 1.19 11.14 11.14 0 0 0 2.9.86 33.25 33.25 0 0 0 4 .43c1.49.1 3.13.08 4.87 0s3.57-.22 5.51-.36 3.9-.33 5.93-.46 4.1-.25 6.17-.35 4.16-.1 6.22-.09c1 0 2 0 3 .08l3 .19c1 .1 1.94.18 2.88.29l2.74.43a49.26 49.26 0 0 1 5 1.14c1.52.39 2.86 1 4.06 1.37s2.18 1 3 1.38 1.42.79 1.84 1l.65.37-.71-.23c-.47-.14-1.15-.36-2-.66s-1.93-.51-3.13-.83-2.58-.6-4.09-.79-3.15-.43-4.88-.63l-2.67-.19-2.8-.12h-5.89c-2.01 0-4 .14-6.09.26s-4.1.22-6.12.35-4 .19-6 .28l-2.86.1h-2.77c-1.81-.06-3.53-.14-5.11-.34a20.38 20.38 0 0 1-4.29-1 9.15 9.15 0 0 1-3-1.73 4.12 4.12 0 0 1-1.24-1.89 3.79 3.79 0 0 1-.08-.67zM433.9 248.57a18.3 18.3 0 0 1-2.36-.46c-.73-.17-1.62-.42-2.61-.7s-2.09-.67-3.3-1-2.52-.83-3.92-1.21-2.88-.83-4.41-1.22-3.13-.79-4.74-1.17-3.27-.77-4.93-1.08-3.31-.64-4.94-.93-3.26-.52-4.83-.71l-2.31-.32c-.75-.08-1.49-.14-2.21-.24-1.45-.19-2.82-.27-4.08-.42s-2.43-.23-3.46-.29-1.94-.17-2.69-.2c-1.49-.08-2.36-.17-2.36-.17s.84-.2 2.32-.49c.75-.13 1.66-.25 2.7-.38s2.23-.2 3.53-.29 2.7-.08 4.19-.05 3.05.13 4.66.26 3.28.36 5 .6l2.54.38c.85.15 1.69.33 2.54.5 1.7.33 3.38.74 5 1.14s3.25.9 4.79 1.4 3 1 4.41 1.49 2.69 1 3.9 1.49c.6.22 1.17.47 1.71.72s1.05.47 1.52.71a20.33 20.33 0 0 1 2.38 1.33 19.32 19.32 0 0 1 1.96 1.31z" transform="translate(-7.06 -14.61)"/><path d="M318.92 288.7s.32 1.17.93 3.36 1.55 5.37 2.91 9.35a111.62 111.62 0 0 0 5.88 13.92 85.13 85.13 0 0 0 10.83 16.26 93.49 93.49 0 0 0 17.1 15.56 122.84 122.84 0 0 0 22.65 12.54 176 176 0 0 0 26.36 8.79 252.87 252.87 0 0 0 28.25 5.36c9.56 1.28 19.21 2.2 28.68 2.85s18.84.92 27.88.71a187.89 187.89 0 0 0 25.91-2.2l3-.51 3-.59c2-.37 3.88-.88 5.77-1.32a104.35 104.35 0 0 0 10.67-3.38 78.73 78.73 0 0 0 9.37-4.23 70.85 70.85 0 0 0 7.89-4.83 74.47 74.47 0 0 0 6.38-5.06c1.85-1.7 3.53-3.29 5-4.8 2.93-3 5.17-5.44 6.7-7.12s2.39-2.55 2.39-2.55a.1.1 0 0 1 .15 0 .12.12 0 0 1 0 .13l-.43.79c-.3.51-.71 1.29-1.33 2.25a58.92 58.92 0 0 1-6 7.95 69.22 69.22 0 0 1-11.59 10.29 70.88 70.88 0 0 1-8.12 5 80.35 80.35 0 0 1-9.61 4.38 102.74 102.74 0 0 1-10.92 3.5c-1.92.46-3.87 1-5.87 1.37l-3 .62-3.08.52a188.12 188.12 0 0 1-26.24 2.33c-9.13.24-18.56 0-28.11-.61-4.77-.29-9.6-.7-14.41-1.16s-9.65-.95-14.47-1.65a252 252 0 0 1-28.5-5.52 178.2 178.2 0 0 1-26.7-9 125.09 125.09 0 0 1-23-12.88 95.58 95.58 0 0 1-17.46-16 86.78 86.78 0 0 1-11.05-16.73 82.68 82.68 0 0 1-5.61-14.38 85.77 85.77 0 0 1-2.16-9.67c-.2-1.12-.33-2-.4-2.58l-.12-.88a.27.27 0 0 1 .23-.3.28.28 0 0 1 .25.12z" transform="translate(-7.06 -14.61)" fill="#adadad"/><path d="M429.94 355.74c-2.37-5.43 34.4 41.65 16.76 45s-9.47-28.28-16.76-45z" stroke="#adadad" stroke-width="2" stroke-miterlimit="10" fill="none"/><path class="cls-27" d="M435.19 372.8c11.76 7.37 22.92 10.31 31.94 35.76M443.94 374.3c-6.72.63-31.25 25.72-19.45 31.76 9.41 4.82 14.93-28.72 12.5-35.71M441.8 372.8c-14.1 8.1-16.68 9.18-20.47 13.1" transform="translate(-7.06 -14.61)"/></g><g id="Confetti"><path class="cls-5" d="M146.88 141.5l-7.89 15.86 12.19 6.45 4.31-11.15-8.61-11.16zM46.23 288.19l-7.89 15.85 12.19 6.46 4.31-11.16-8.61-11.15zM578.42 98.14l-8.25 7.93 12.2 6.46 4.3-11.16-8.25-3.23zM114.5 456.67l-8.25 7.93 12.2 6.45 4.3-11.15-8.25-3.23z"/><path class="cls-6" d="M216.9 599.46l-8.59-7.57-5.42 12.69 11.47 3.37 2.54-8.49z"/><path class="cls-5" d="M818.2 406.04l-8.59-7.56-5.42 12.68 11.47 3.37 2.54-8.49z"/><path class="cls-6" d="M208.87 131.13l-8.59-7.56-5.42 12.68 11.47 3.37 2.54-8.49z"/><path class="cls-5" d="M182.62 226.96l-8.9 12.61 8.99 4.24 6.98-18.18-7.07 1.33z"/><path class="cls-6" d="M660.34 154.34l-8.9 12.61 8.98 4.23 6.98-18.17-7.06 1.33z"/><path class="cls-5" d="M642.34 496.26l-8.9 12.6 8.98 4.24 6.98-18.18-7.06 1.34zM357.53 190.75l-8.9 12.61 8.99 4.24 6.98-18.18-7.07 1.33zM688.33 306.51l-8.9 12.6 8.98 4.24 6.98-18.18-7.06 1.34z"/><path class="cls-7" d="M205.26 407.82l-15.36-1.56.73 9.91 19.26-2.85-4.63-5.5zM171.5 526.37l-15.35-1.56.73 9.91 19.26-2.85-4.64-5.5zM185.71 611.36l-14.55 5.13 4.88 8.65 16.21-10.78-6.54-3z"/><path class="cls-5" d="M164.66 29.63l-14.38 5.6 5.16 8.49 15.85-11.3-6.63-2.79z"/><path class="cls-6" d="M113.45 204.04l-11.47-7.22 11.47-9.32 5.02 8.27-5.02 8.27zM777.08 259.56l-11.48-7.22 11.48-9.33 5.02 8.28-5.02 8.27zM194.88 325.36l-11.48-7.22 11.48-9.33 5.02 8.27-5.02 8.28z"/><path class="cls-5" d="M754.34 616.67l-14.97-4.87 14.97-6.3 6.55 5.59-6.55 5.58z"/><path class="cls-6" d="M765.1 404.06l-14.97-4.87 14.97-6.3 6.55 5.59-6.55 5.58z"/><path class="cls-5" d="M843.38 293.96l-14.97-4.88 14.97-6.3 6.55 5.59-6.55 5.59z"/><path class="cls-7" d="M629.84 246.12l13.61-7.93-5.27 15.36-8.53 1.18.19-8.61z"/><path class="cls-5" d="M717.03 155.42l13.61-7.93 3.69 8.27-17.48 8.27.18-8.61z"/><path class="cls-6" d="M21.05 572.25l13.6-7.93 3.69 8.27-17.48 8.27.19-8.61z"/><path class="cls-5" d="M399.76 0l15.08 4.57-14.84 6.6-6.67-5.45L399.76 0z"/><path class="cls-7" d="M86.04 520.79l9.33 4.51-4.67 13.44-13.98-7.42 9.32-10.53zM860.74 520.79l9.32 4.51-4.66 13.44-13.99-7.42 9.33-10.53zM199.76 71.06l9.33 4.51-4.67 13.44-13.98-7.42 9.32-10.53z"/><path class="cls-6" d="M585.87 506.87l9.32 4.51-4.66 13.43-13.99-7.42 9.33-10.52z"/><path class="cls-7" d="M641.42 620.65l9.19-4.78 7.98 11.77-14.31 6.77-2.86-13.76zM783.07 303.37l.32-7.11 12.52-6.36-1.01 11.08-11.83 2.39z"/><path class="cls-6" d="M108.9 317.29l6.09-3.03 5.11 7.81-9.47 4.29-1.73-9.07z"/><path class="cls-7" d="M0 145.78l6.09-3.03 5.11 7.81-9.47 4.29L0 145.78z"/><path class="cls-6" d="M285.64 622.12l6.08-3.03 5.11 7.81-9.47 4.29-1.72-9.07zM190.41 471.01l6.09-3.03 5.11 7.82-9.48 4.28-1.72-9.07z"/><path class="cls-7" d="M510.83 466.83l4.77 2.31v12.09h-15.01l10.24-14.4z"/><path class="cls-6" d="M534.45 126.59l4.78 2.31v12.09h-15.02l10.24-14.4z"/><path class="cls-7" d="M353.82 34.83l4.77 2.31v12.1h-15.02l10.25-14.41z"/><path class="cls-6" d="M613.42 42.03l4.78 2.32v12.09h-15.02l10.24-14.41z"/><path class="cls-5" d="M533.11 58.11l4.77 2.31-7.51 11.11-7.51-10.27 10.25-3.15z"/><path class="cls-7" d="M390.65 549.73l4.78 2.31-7.51 11.1-7.51-10.26 10.24-3.15z"/><path class="cls-6" d="M278.67 418.73l4.77 2.32-7.51 11.1-7.51-10.27 10.25-3.15zM784.09 481.98l4.78 2.31-7.51 11.11-7.51-10.27 10.24-3.15z"/><path class="cls-7" d="M563.96 632.49l4.78 2.31-7.51 11.1-7.51-10.27 10.24-3.14zM470.88 60.05l-4.06 3.42-11.04-4.93 16.4-9.13-1.3 10.64z"/><path class="cls-5" d="M635.25 583.23l-4.06 3.41-11.04-4.92 16.4-9.13-1.3 10.64z"/><path class="cls-6" d="M381.25 660.99l-4.06 3.42-11.05-4.93 1.85-9.13 13.26 10.64z"/><path class="cls-5" d="M301 492.3l-4.06 3.42-11.04-4.93 1.84-9.13L301 492.3zM249.53 628.75l-4.06 3.42-11.05-4.93 1.85-9.13 13.26 10.64z"/><path class="cls-6" d="M69.94 399.94l-4.06 3.42-11.04-4.93 16.4-9.13-1.3 10.64zM326.07 390.39l-4.06 3.42-11.04-4.93 16.4-9.13-1.3 10.64z"/><path class="cls-5" d="M447.22 621.72l-4.05 3.42-11.05-4.93 16.4-9.12-1.3 10.63z"/><path class="cls-6" d="M640.59 391.98l2.17-4.84 12.09-.36 4.57 7.67-18.83-2.47z"/><path class="cls-7" d="M267.56 580.98l2.16-4.84 12.09-.36 4.58 7.67-18.83-2.47z"/><path class="cls-6" d="M668.58 561.64l2.17-4.84 12.09-.36 4.57 7.67-18.83-2.47zM756.12 87.79l4.77 2.31v12.1h-15.02l10.25-14.41zM540.62 331.19l4.77 2.31v12.1h-15.02l10.25-14.41z"/><path class="cls-7" d="M789.49 138.98l2.17-4.84 12.09-.35.44 15.01-14.7-9.82zM721.12 528.28l-13.76 7.22 9.81-21.37 3.95 14.15z"/><path class="cls-5" d="M735.7 243.63a7.23 7.23 0 0 0 1.32-4.48 16.74 16.74 0 0 0-4.58-10.33c.15.16-3.67 4.05-3.46 4.27 2.29 2.47 5.28 7.64 4.72 11.68-3.48 1-8-1.84-11.13-2.69-3.76-1-6.32 2.89-8.07 5.79-2.3 3.84.59 7.24 3.17 10 1 1.06 3.1 2.8 4.05 4.61-2-.3-4.17-1.8-5.64-2.87-3.15-2.28-6-5.39-9.44-7.17a3.1 3.1 0 0 0-3.36.12v-.06l-.06.07c-1.3.88-2.29 2.6-3.29 4a.21.21 0 0 1 0 .06c-3.65 5.36-1.15 13.31-.16 19.12-.06-.31 1.52-1.83 1.75-2.11s1.78-1.72 1.71-2.16c-.75-4.41-2.56-10.51-1.47-15.41 2.74.37 6.63 4.41 7.91 5.45 2.66 2.16 8.09 7.34 11.71 4.33a16.25 16.25 0 0 0 4.1-5.06c.73-1.82-.93-3.55-2.05-4.8-2.56-2.87-6.52-6.11-6.24-9.93 2.36-.24 5.22 1.56 7.27 2.21 3.21 1 6 1.26 8.25-1l-.1.15.17-.22c.16-.16.32-.34.48-.53.82-1 1.63-1.9 2.29-2.87l.29-.35z" transform="translate(-7.06 -14.61)"/><path class="cls-7" d="M127.22 267.13a7.28 7.28 0 0 0 1.32-4.49 16.74 16.74 0 0 0-4.54-10.32c.15.16-3.67 4.05-3.46 4.27 2.29 2.47 5.28 7.64 4.72 11.68-3.48 1-8-1.85-11.13-2.69-3.76-1-6.32 2.89-8.07 5.79-2.3 3.84.59 7.24 3.17 10 1 1.05 3.1 2.8 4 4.61-2-.3-4.17-1.8-5.64-2.87-3.15-2.29-5.95-5.4-9.44-7.17a3.08 3.08 0 0 0-3.36.12v-.07l-.06.08c-1.3.87-2.29 2.6-3.29 4v.06c-3.65 5.36-1.15 13.32-.16 19.13-.06-.31 1.52-1.83 1.75-2.12s1.78-1.71 1.71-2.15c-.75-4.41-2.56-10.52-1.47-15.42 2.74.38 6.63 4.42 7.91 5.46 2.66 2.16 8.09 7.34 11.71 4.33a16.17 16.17 0 0 0 4.1-5.07c.73-1.81-.93-3.54-2-4.8-2.56-2.86-6.52-6.1-6.24-9.92 2.36-.25 5.22 1.55 7.27 2.21 3.21 1 6 1.26 8.26-1l-.11.15.17-.21c.16-.17.32-.34.48-.53.82-1 1.63-1.91 2.29-2.87l.29-.36a1.59 1.59 0 0 1-.18.17z" transform="translate(-7.06 -14.61)"/><path class="cls-5" d="M258.86 534.54c0-.08-.05-.16-.08-.23a3.94 3.94 0 0 0-.08.77c.05-.13.09-.26.13-.4z" transform="translate(-7.06 -14.61)"/><path class="cls-5" d="M256.24 525.47c-4.22-1.39-16.45 5-20.47 1 1.86-1.86 5.32-3 7.07-3.81 2.3-1 5.93-1.92 6.47-4.63a1.6 1.6 0 0 1 .05.21v-.51a.5.5 0 0 0 0-.12c.14-1.86.46-4.5-.36-6.24-1-2.15-3.71-3.12-5.81-3.76-3.14-1-7.58-1.37-9.67-4 2.22-2.71 7.07-4 9.82-4.93.63-.22-.56-5.73 0-5.91-3.34 1.12-9.45 2.68-10.77 6.55a12.46 12.46 0 0 0-.23 3.95 15.56 15.56 0 0 0 .28 4.62c1.11 3.47 5 4.14 8 4.94a24.38 24.38 0 0 1 6.13 2.1l-.88.42c-2.08 1-4.27 1.83-6.34 2.87-1.67.85-3.79 1.91-4.68 3.66s-.46 4.48-.42 6.39v.71c.91 10.59 17.4-.87 22.73 2.82a4.16 4.16 0 0 1 1.52 2.44 6.22 6.22 0 0 1 .37-1.18 8.8 8.8 0 0 0-.29 1.41c0 .11.07.22.11.33.39 1.13-.23 1.2-.27.21a13 13 0 0 1-1.05 2.46 13.92 13.92 0 0 1-8.08 6.69c-.55.16.47 5.79 0 5.92 5.62-1.57 9.5-7.15 9.7-12.84.21-3.24 1.24-10.39-2.93-11.77z" transform="translate(-7.06 -14.61)"/><path class="cls-6" d="M106.07 100.78c0-.08 0-.16-.08-.23a4 4 0 0 0-.08.78c0-.14.09-.27.13-.4z" transform="translate(-7.06 -14.61)"/><path class="cls-6" d="M103.45 91.72c-4.22-1.4-16.46 5-20.47 1 1.86-1.86 5.32-3 7.07-3.81 2.3-1 5.93-1.92 6.47-4.63a2.09 2.09 0 0 1 0 .21V84a.5.5 0 0 1 0-.12c.14-1.86.46-4.5-.36-6.24-1-2.15-3.71-3.12-5.81-3.76-3.14-1-7.58-1.37-9.68-4 2.23-2.71 7.08-4 9.83-4.93.63-.21-.56-5.73 0-5.91-3.34 1.12-9.45 2.69-10.77 6.55a12.46 12.46 0 0 0-.23 4 15.54 15.54 0 0 0 .28 4.62c1.11 3.47 4.94 4.14 8 4.94A24 24 0 0 1 94 81.23l-.88.42c-2.08 1-4.27 1.82-6.34 2.87-1.67.84-3.79 1.9-4.69 3.66s-.45 4.47-.41 6.38v.71c.91 10.59 17.39-.87 22.73 2.82a4.16 4.16 0 0 1 1.52 2.44 6.22 6.22 0 0 1 .37-1.18 8.8 8.8 0 0 0-.29 1.41c0 .11.07.22.11.33.38 1.13-.24 1.21-.27.22a12.92 12.92 0 0 1-1 2.45 13.93 13.93 0 0 1-8.08 6.7c-.55.15.47 5.78 0 5.91 5.62-1.57 9.49-7.15 9.69-12.84.13-3.34 1.15-10.44-3.01-11.81zM694.76 495.57l.07-.18a1.94 1.94 0 0 1 .08.58c0-.1-.09-.2-.12-.29a.61.61 0 0 1-.03-.11z" transform="translate(-7.06 -14.61)"/><path class="cls-6" d="M697.37 488.85c4.22-1 16.46 3.69 20.47.77-1.85-1.38-5.32-2.26-7.07-2.83-2.3-.74-5.93-1.42-6.47-3.43v.16-.38a.29.29 0 0 0 0-.09c-.13-1.38-.45-3.34.37-4.63 1-1.59 3.71-2.31 5.8-2.79 3.14-.71 7.59-1 9.68-3-2.23-2-7.07-3-9.82-3.65-.64-.16.55-4.24 0-4.38 3.33.83 9.45 2 10.76 4.86a6.9 6.9 0 0 1 .23 2.93 8.42 8.42 0 0 1-.28 3.42c-1.1 2.57-4.94 3.07-8 3.66a30.51 30.51 0 0 0-6.13 1.56l.88.31c2.09.76 4.27 1.36 6.35 2.13 1.67.63 3.78 1.42 4.68 2.71s.45 3.32.42 4.74v.52c-.91 7.85-17.4-.64-22.74 2.09a3.12 3.12 0 0 0-1.52 1.8 4.14 4.14 0 0 0-.37-.87 4.68 4.68 0 0 1 .3 1.05 2.56 2.56 0 0 0-.11.24c-.39.84.23.9.26.16a9 9 0 0 0 1.05 1.82 13.79 13.79 0 0 0 8.08 5c.55.11-.47 4.28 0 4.38-5.61-1.17-9.49-5.3-9.69-9.52-.27-2.46-1.29-7.72 2.87-8.74z" transform="translate(-7.06 -14.61)"/><path class="cls-7" d="M698 81.13l-.08-.23a3.34 3.34 0 0 0-.07.78l.12-.4z" transform="translate(-7.06 -14.61)"/><path class="cls-7" d="M695.4 72.07c-4.22-1.4-16.45 5-20.47 1 1.86-1.86 5.32-3 7.07-3.82 2.3-1 5.93-1.92 6.48-4.62v.21-.52a.5.5 0 0 0 0-.12c.14-1.86.46-4.5-.36-6.24-1-2.15-3.71-3.12-5.8-3.76-3.15-1-7.59-1.37-9.68-4 2.22-2.71 7.07-4 9.82-4.93.63-.21-.55-5.72 0-5.91-3.34 1.12-9.45 2.69-10.77 6.55a12.5 12.5 0 0 0-.23 4 15.49 15.49 0 0 0 .28 4.61c1.11 3.47 5 4.15 8 4.94a24 24 0 0 1 6.26 2.12l-.87.42c-2.09 1-4.28 1.82-6.35 2.87-1.67.84-3.79 1.91-4.68 3.66s-.45 4.47-.42 6.38v.71c.91 10.58 17.4-.87 22.73 2.81a4.19 4.19 0 0 1 1.52 2.44 6.15 6.15 0 0 1 .37-1.17 8.67 8.67 0 0 0-.29 1.4l.11.33c.39 1.14-.23 1.21-.26.22a13.63 13.63 0 0 1-1.06 2.45 13.9 13.9 0 0 1-8.08 6.7c-.55.15.47 5.78 0 5.91 5.62-1.57 9.5-7.14 9.7-12.83.13-3.34 1.15-10.44-3.02-11.81z" transform="translate(-7.06 -14.61)"/></g></svg>